<svg width="32" height="32" viewBox="0 0 32 32" fill="none" xmlns="http://www.w3.org/2000/svg">
<path d="M9.30649 27.7339V29.7419C9.30649 30.8646 8.39962 31.7499 7.29849 31.7499C6.19737 31.7499 5.29049 30.8646 5.29049 29.7419V27.7339H3.26074V21.1699C3.26074 19.7232 4.23237 18.5356 5.54949 18.1686L7.90299 12.5762C8.24849 11.7557 9.04737 11.1727 9.99737 11.1727H22.0241C22.9741 11.1727 23.7731 11.7557 24.1185 12.5762L26.4505 18.1686C27.7676 18.5357 28.7392 19.7232 28.7392 21.1699V27.7339H26.688V29.7419C26.688 30.8646 25.7811 31.7499 24.68 31.7499C23.5572 31.7499 22.672 30.8646 22.672 29.7419V27.7339H9.30649ZM7.42799 24.128C8.55074 24.128 9.45762 23.2211 9.45762 22.0984C9.45762 20.9756 8.55074 20.0687 7.42799 20.0687C6.30524 20.0687 5.39837 20.9756 5.39837 22.0984C5.39837 23.2211 6.30512 24.128 7.42799 24.128ZM26.4721 22.0984C26.4721 20.9756 25.5652 20.0687 24.4425 20.0687C23.3197 20.0687 22.4129 20.9756 22.4129 22.0984C22.4129 23.2211 23.3197 24.128 24.4425 24.128C25.5652 24.128 26.4721 23.2211 26.4721 22.0984ZM24.4425 18.0606L22.4345 13.224C22.3481 12.9865 22.1106 12.8137 21.8299 12.8137H10.1701C9.91099 12.8137 9.67349 12.9865 9.58712 13.224L7.57912 18.0606H24.4425ZM7.23337 5.835H18.982C19.0517 5.835 19.1204 5.83037 19.188 5.82225C19.82 7.08537 21.1251 7.95312 22.6336 7.95312C24.2637 7.95312 25.6564 6.93987 26.2186 5.50925H22.6336V2.69387H26.2186C25.6565 1.26325 24.264 0.25 22.6337 0.25C21.1252 0.25 19.8201 1.11775 19.1881 2.38087C19.1205 2.37275 19.0517 2.36812 18.9821 2.36812H7.23337C6.27999 2.36812 5.49999 3.14812 5.49999 4.1015C5.49999 5.05487 6.27999 5.835 7.23337 5.835Z" fill="white"/>
</svg>
