<svg width="32" height="32" viewBox="0 0 32 32" fill="none" xmlns="http://www.w3.org/2000/svg">
<path d="M25.1031 8.99367C25.1595 9.10412 25.1932 9.22469 25.2024 9.34834C25.2117 9.47198 25.1961 9.59622 25.1568 9.7138C25.1174 9.83138 25.055 9.93993 24.9733 10.0331C24.8915 10.1263 24.7919 10.2023 24.6805 10.2565C24.569 10.3108 24.4478 10.3424 24.324 10.3493C24.2002 10.3562 24.0763 10.3384 23.9595 10.2968C23.8426 10.2553 23.7353 10.1909 23.6436 10.1074C23.552 10.0239 23.4779 9.92298 23.4257 9.81052C22.8663 8.66275 22.0782 7.64143 21.1099 6.80925C20.8019 6.63747 20.4543 6.5492 20.1016 6.5532C19.749 6.55721 19.4035 6.65335 19.0995 6.83209C18.7954 7.01083 18.5434 7.26596 18.3684 7.57216C18.1934 7.87836 18.1015 8.225 18.1019 8.57767V9.60504C18.1014 9.81708 18.017 10.0203 17.8671 10.1702C17.7171 10.3202 17.5139 10.4046 17.3019 10.405H13.125C12.913 10.4046 12.7098 10.3202 12.5598 10.1702C12.4099 10.0203 12.3255 9.81708 12.325 9.60504V9.72294C12.3255 9.32976 12.2108 8.94505 11.9949 8.61641C11.9457 8.55454 11.8985 8.49106 11.8534 8.4261C11.6483 8.18127 11.3881 7.98847 11.0942 7.86344C10.8003 7.73841 10.4809 7.68471 10.1623 7.70672C9.84362 7.72873 9.5347 7.82583 9.26075 7.99008C8.98681 8.15433 8.75562 8.38108 8.58607 8.65178C8.4988 8.8476 8.34676 9.00739 8.15551 9.10428C7.96427 9.20117 7.74549 9.22924 7.53598 9.18378C7.32647 9.13832 7.13901 9.0221 7.00512 8.85466C6.87123 8.68723 6.79908 8.47879 6.80081 8.26441V4.42441C6.80067 4.20688 6.87654 3.99613 7.01531 3.82861C7.15408 3.66108 7.34702 3.54731 7.56078 3.50695C7.77453 3.4666 7.99567 3.5022 8.18596 3.6076C8.37626 3.71301 8.52374 3.88159 8.60292 4.0842C8.7718 4.3452 8.99861 4.56372 9.26571 4.72277C9.53282 4.88182 9.83301 4.97711 10.1429 5.00122C10.4529 5.02534 10.7642 4.97764 11.0527 4.86182C11.3412 4.746 11.5991 4.5652 11.8063 4.33346C11.8776 4.22503 11.9546 4.12046 12.037 4.0202L12.0488 4.00167H12.0539C12.3968 3.58955 12.8263 3.25802 13.3118 3.03068C13.7973 2.80334 14.327 2.68576 14.8631 2.68631H14.9137C14.9461 2.68279 14.9787 2.6811 15.0113 2.68125C17.1165 2.68059 19.1794 3.27219 20.9643 4.38844C22.7492 5.50469 24.184 7.10056 25.1048 8.99367H25.1031ZM17.2934 12.5558C17.293 12.3437 17.2086 12.1405 17.0586 11.9906C16.9087 11.8407 16.7055 11.7562 16.4934 11.7558H13.605C13.3931 11.7567 13.1902 11.8412 13.0403 11.9911C12.8905 12.1409 12.8059 12.3439 12.805 12.5558V28.4631C12.8055 28.6752 12.8899 28.8784 13.0398 29.0283C13.1898 29.1783 13.393 29.2627 13.605 29.2631H16.4934C16.7055 29.2627 16.9087 29.1783 17.0586 29.0283C17.2086 28.8784 17.293 28.6752 17.2934 28.4631V12.5558Z" fill="white"/>
</svg>
