<svg width="32" height="32" viewBox="0 0 32 32" fill="none" xmlns="http://www.w3.org/2000/svg">
<path d="M16.0002 19.3333V22M9.3335 13.3717C9.96206 13.3333 10.7369 13.3333 11.7335 13.3333H20.2668C21.2634 13.3333 22.0383 13.3333 22.6668 13.3717M9.3335 13.3717C8.54907 13.4196 7.99255 13.5273 7.51754 13.7693C6.76488 14.1528 6.15296 14.7647 5.76947 15.5173C5.3335 16.3731 5.3335 17.4931 5.3335 19.7333V21.6C5.3335 23.8403 5.3335 24.9603 5.76947 25.816C6.15296 26.5687 6.76488 27.1805 7.51754 27.564C8.37318 28 9.49328 28 11.7335 28H20.2668C22.5071 28 23.6271 28 24.4828 27.564C25.2355 27.1805 25.8474 26.5687 26.2308 25.816C26.6668 24.9603 26.6668 23.8403 26.6668 21.6V19.7333C26.6668 17.4931 26.6668 16.3731 26.2308 15.5173C25.8474 14.7647 25.2355 14.1528 24.4828 13.7693C24.0078 13.5273 23.4512 13.4196 22.6668 13.3717M9.3335 13.3717V10.6667C9.3335 6.98477 12.3183 4 16.0002 4C19.682 4 22.6668 6.98477 22.6668 10.6667V13.3717" stroke="white" stroke-width="3" stroke-linecap="round" stroke-linejoin="round"/>
</svg>
