<svg width="32" height="32" viewBox="0 0 32 32" fill="none" xmlns="http://www.w3.org/2000/svg">
<path d="M15.0695 28.8199C15.3647 28.992 15.5123 29.0781 15.7206 29.1228C15.8823 29.1575 16.118 29.1575 16.2798 29.1228C16.488 29.0781 16.6356 28.992 16.9308 28.8199C19.5282 27.3045 26.6668 22.5445 26.6668 16V8.8C26.6668 8.05609 26.6668 7.68413 26.5236 7.40064C26.3967 7.14931 26.1984 6.94869 25.9486 6.81879C25.6668 6.67225 25.2886 6.66779 24.5319 6.65884C20.5698 6.61199 18.285 6.28481 16.0002 4C13.7154 6.28481 11.4305 6.61199 7.46843 6.65884C6.7118 6.66779 6.33348 6.67225 6.0517 6.81879C5.80188 6.94869 5.60362 7.14931 5.47668 7.40064C5.3335 7.68413 5.3335 8.05609 5.3335 8.8V16C5.3335 22.5445 12.4721 27.3045 15.0695 28.8199Z" stroke="white" stroke-width="3" stroke-linecap="round" stroke-linejoin="round"/>
</svg>
