<svg width="32" height="32" viewBox="0 0 32 32" fill="none" xmlns="http://www.w3.org/2000/svg">
<path d="M30.6668 16C30.6668 24.1001 24.1003 30.6667 16.0002 30.6667C7.89999 30.6667 1.3335 24.1001 1.3335 16C1.3335 7.89983 7.89999 1.33334 16.0002 1.33334C24.1003 1.33334 30.6668 7.89983 30.6668 16ZM4.00927 16C4.00927 22.6224 9.37778 27.9909 16.0002 27.9909C22.6226 27.9909 27.9911 22.6224 27.9911 16C27.9911 9.37762 22.6226 4.00911 16.0002 4.00911C9.37778 4.00911 4.00927 9.37762 4.00927 16Z" fill="white"/>
<path d="M15.9998 6.66666C15.2634 6.66666 14.6665 7.26361 14.6665 8V16.6223C14.6665 16.6223 14.6665 16.9699 14.8354 17.2313C14.9485 17.4531 15.1248 17.6457 15.3564 17.7795L21.5161 21.3359C22.1538 21.704 22.9693 21.4855 23.3374 20.8477C23.7056 20.21 23.4872 19.3945 22.8494 19.0264L17.3332 15.8416V8C17.3332 7.26362 16.7362 6.66666 15.9998 6.66666Z" fill="white"/>
</svg>
